<svg xmlns="http://www.w3.org/2000/svg" viewBox="0 0 20 20"><path d="M13.3,10c0-0.9-0.3-1.7-1-2.4c-0.7-0.7-1.4-1-2.4-1c-0.9,0-1.7,0.3-2.4,1c-0.7,0.7-1,1.4-1,2.4c0,0.9,0.3,1.7,1,2.4 c0.7,0.7,1.4,1,2.4,1c0.9,0,1.7-0.3,2.4-1C13,11.7,13.3,10.9,13.3,10z M15.1,10c0,1.4-0.5,2.6-1.5,3.6c-1,1-2.2,1.5-3.6,1.5 c-1.4,0-2.6-0.5-3.6-1.5S4.9,11.4,4.9,10s0.5-2.6,1.5-3.6S8.6,4.9,10,4.9c1.4,0,2.6,0.5,3.6,1.5S15.1,8.6,15.1,10z M16.5,4.7 c0,0.3-0.1,0.6-0.4,0.8c-0.2,0.2-0.5,0.4-0.8,0.4c-0.3,0-0.6-0.1-0.8-0.4c-0.2-0.2-0.4-0.5-0.4-0.8c0-0.3,0.1-0.6,0.4-0.8 c0.2-0.2,0.5-0.4,0.8-0.4c0.3,0,0.6,0.1,0.8,0.4C16.4,4,16.5,4.3,16.5,4.7z M10,1.8c-0.1,0-0.4,0-1,0s-1.1,0-1.4,0 c-0.3,0-0.7,0-1.3,0C5.8,1.9,5.4,1.9,5,2C4.7,2,4.4,2.1,4.1,2.2C3.7,2.4,3.3,2.6,3,3C2.6,3.3,2.4,3.7,2.2,4.1C2.1,4.4,2,4.7,2,5 C1.9,5.4,1.9,5.8,1.8,6.4c0,0.5,0,0.9,0,1.3c0,0.3,0,0.8,0,1.4c0,0.6,0,0.9,0,1c0,0.1,0,0.4,0,1c0,0.6,0,1.1,0,1.4 c0,0.3,0,0.7,0,1.3c0,0.5,0.1,1,0.1,1.3s0.1,0.7,0.2,0.9C2.4,16.3,2.6,16.7,3,17s0.7,0.6,1.1,0.8C4.4,17.9,4.7,18,5,18 c0.4,0.1,0.8,0.1,1.3,0.1s0.9,0,1.3,0c0.3,0,0.8,0,1.4,0s0.9,0,1,0c0.1,0,0.4,0,1,0c0.6,0,1.1,0,1.4,0c0.3,0,0.7,0,1.3,0 c0.5,0,1-0.1,1.3-0.1c0.4-0.1,0.7-0.1,0.9-0.2c0.4-0.2,0.8-0.4,1.1-0.8c0.3-0.3,0.6-0.7,0.8-1.1c0.1-0.3,0.2-0.6,0.2-0.9 c0.1-0.4,0.1-0.8,0.1-1.3c0-0.5,0-0.9,0-1.3c0-0.3,0-0.8,0-1.4c0-0.6,0-0.9,0-1s0-0.4,0-1c0-0.6,0-1.1,0-1.4c0-0.3,0-0.7,0-1.3 c0-0.5-0.1-1-0.1-1.3c-0.1-0.4-0.1-0.7-0.2-0.9C17.6,3.7,17.4,3.3,17,3c-0.3-0.3-0.7-0.6-1.1-0.8C15.6,2.1,15.3,2,15,2 c-0.4-0.1-0.8-0.1-1.3-0.1c-0.5,0-0.9,0-1.3,0c-0.3,0-0.8,0-1.4,0C10.4,1.8,10.1,1.8,10,1.8z M20,10c0,2,0,3.4-0.1,4.1 c-0.1,1.8-0.6,3.2-1.6,4.2c-1,1-2.4,1.5-4.2,1.6C13.4,20,12,20,10,20c-2,0-3.4,0-4.1-0.1c-1.8-0.1-3.2-0.6-4.2-1.6 c-1-1-1.5-2.4-1.6-4.2C0,13.4,0,12,0,10s0-3.4,0.1-4.1c0.1-1.8,0.6-3.2,1.6-4.2s2.4-1.5,4.2-1.6C6.6,0,8,0,10,0s3.4,0,4.1,0.1 c1.8,0.1,3.2,0.6,4.2,1.6s1.5,2.4,1.6,4.2C20,6.6,20,8,20,10z"></path></svg>