<svg xmlns="http://www.w3.org/2000/svg" viewBox="0 0 24 24">
<path d="M16.72,14.24c2.89-3.99,1.99-9.56-2-12.44c-0.06-0.05-0.13-0.09-0.2-0.14C10.38-1.22,4.68-0.26,1.69,3.81
	c-2.89,3.99-1.99,9.56,2,12.44c0.06,0.05,0.13,0.09,0.19,0.14c2.98,2.06,6.87,2.21,10,0.4l6.79,6.61c0.74,0.76,1.95,0.79,2.72,0.07
	c0.76-0.7,0.8-1.88,0.11-2.63c-0.01-0.01-0.02-0.03-0.04-0.04c-0.02-0.02-0.05-0.04-0.07-0.07L16.72,14.24z M9.2,14.86
	c-3.22-0.06-5.77-2.72-5.71-5.93c0.06-3.21,2.72-5.77,5.94-5.71c3.17,0.06,5.7,2.64,5.71,5.81C15.11,12.28,12.46,14.89,9.2,14.86
	C9.2,14.86,9.2,14.86,9.2,14.86z"/>
</svg>